<?xml version="1.0" encoding="utf-8"?>
<!-- Generator: Adobe Illustrator 16.0.3, SVG Export Plug-In . SVG Version: 6.00 Build 0)  -->
<!DOCTYPE svg PUBLIC "-//W3C//DTD SVG 1.1//EN" "http://www.w3.org/Graphics/SVG/1.1/DTD/svg11.dtd">
<svg version="1.1" id="Layer_1" xmlns="http://www.w3.org/2000/svg" xmlns:xlink="http://www.w3.org/1999/xlink" x="0px" y="0px"
	 width="28px" height="42px" viewBox="0 0 28 42" enable-background="new 0 0 28 42" xml:space="preserve">
<path fill="#354747" d="M19.444,14.634c-0.001,17.782-4.058,26.141-4.229,26.489l-0.141,0.209c-0.461,0.535-0.968,0.566-1.228,0.539
	c-0.51-0.053-0.873-0.404-1.043-0.711c-0.191-0.383-4.249-8.742-4.249-26.526l0.043-1.273c0.037-0.131,0.96-3.211,5.259-3.828
	l0.143-0.02l0.142,0.02c4.301,0.617,5.224,3.697,5.261,3.828l0.038,0.264L19.444,14.634z M14,38.816
	c1.111-3.037,3.443-10.98,3.444-24.182l-0.004-0.825c-0.167-0.398-0.944-1.867-3.439-2.274c-2.485,0.406-3.274,1.883-3.442,2.276
	l-0.004,0.823C10.555,27.837,12.888,35.779,14,38.816"/>
<path d="M10.891,4.844c0.277-0.11,0.59,0.022,0.695,0.294l1.422,3.637c0.107,0.271-0.033,0.58-0.31,0.69
	c-0.28,0.108-0.59-0.024-0.697-0.296L10.58,5.532C10.473,5.262,10.613,4.952,10.891,4.844"/>
<path fill="#354747" d="M14.044,8.964c0,0.633-0.383,1.194-0.977,1.43c-0.797,0.311-1.689-0.075-1.997-0.859L9.649,5.897
	c-0.299-0.76,0.113-1.687,0.879-1.985c0.379-0.151,0.8-0.144,1.18,0.021c0.375,0.164,0.663,0.463,0.811,0.843L13.94,8.41
	C14.009,8.587,14.044,8.772,14.044,8.964"/>
<path d="M16.399,4.812c-0.277-0.105-0.591,0.032-0.699,0.307l-1.465,3.676c-0.109,0.275,0.025,0.584,0.303,0.689
	c0.275,0.105,0.59-0.031,0.699-0.306l1.464-3.677C16.81,5.228,16.674,4.919,16.399,4.812"/>
<path fill="#354747" d="M17.739,5.306c0,0.193-0.037,0.385-0.109,0.566l-1.464,3.676c-0.311,0.779-1.201,1.169-1.985,0.869
	c-0.77-0.293-1.179-1.227-0.875-1.992l1.465-3.677c0.311-0.778,1.2-1.169,1.984-0.871C17.355,4.111,17.739,4.671,17.739,5.306"/>
<path d="M13.638,1.124c-0.355,0.041-0.648,0.361-0.652,0.717L12.92,6.583c-0.005,0.355,0.28,0.61,0.637,0.568
	c0.354-0.04,0.646-0.361,0.652-0.716l0.064-4.74C14.279,1.339,13.993,1.085,13.638,1.124"/>
<path fill="#354747" d="M15.274,1.687L15.274,1.687v0.021L15.21,6.45c-0.012,0.854-0.689,1.599-1.541,1.695
	c-0.448,0.053-0.898-0.086-1.23-0.381c-0.33-0.293-0.519-0.721-0.519-1.173l0.065-4.765c0.009-0.852,0.685-1.598,1.539-1.695
	c0.458-0.052,0.905,0.09,1.235,0.385C15.087,0.811,15.274,1.237,15.274,1.687"/>
<path fill="#354747" d="M14.468,22.685l-0.148,1.994c-1.889-0.143-3.501,0.604-3.519,0.609l-0.857-1.805
	C10.027,23.443,12.033,22.5,14.468,22.685"/>
<path fill="#354747" d="M14.396,28.054l-0.166,1.992c-1.746-0.145-3.24,0.576-3.254,0.586l-0.894-1.791
	C10.162,28.8,12.073,27.859,14.396,28.054"/>
<path fill="#354747" d="M18.324,20.476l-0.861,1.805l0.43-0.903l-0.427,0.905c-0.016-0.008-1.63-0.752-3.517-0.611l-0.15-1.994
	C16.232,19.493,18.239,20.437,18.324,20.476"/>
<path fill="#354747" d="M18.185,25.833l-0.894,1.789c-0.014-0.008-1.507-0.73-3.254-0.584l-0.167-1.992
	C16.194,24.851,18.105,25.794,18.185,25.833"/>
<rect x="8.554" y="0.121" fill="none" width="10.89" height="41.757"/>
</svg>
