<?xml version="1.0" encoding="utf-8"?>
<!-- Generator: Adobe Illustrator 16.0.3, SVG Export Plug-In . SVG Version: 6.00 Build 0)  -->
<!DOCTYPE svg PUBLIC "-//W3C//DTD SVG 1.1//EN" "http://www.w3.org/Graphics/SVG/1.1/DTD/svg11.dtd">
<svg version="1.1" id="Layer_1" xmlns="http://www.w3.org/2000/svg" xmlns:xlink="http://www.w3.org/1999/xlink" x="0px" y="0px"
	 width="48.703px" height="32.77px" viewBox="0 0 48.703 32.77" enable-background="new 0 0 48.703 32.77" xml:space="preserve">
<path fill="#354747" d="M47.38,13.64c-0.028-0.018-0.056-0.036-0.084-0.052l-4.213-6.409l-7.056-0.127V0H0v23.903h36.027v-0.01
	l12.629-0.131l0.022-0.967C48.869,14.653,47.863,13.969,47.38,13.64z M46.315,15.655c0.009,0.033,0.019,0.08,0.027,0.118h-6.274
	v-2.693h4.5l1.705,2.593L46.315,15.655z M34.027,21.902H2V2h32.027V21.902z M46.697,21.781l-10.67,0.11V9.052l5.964,0.108
	l1.263,1.92h-5.186v6.693h8.537C46.676,18.729,46.719,20.015,46.697,21.781z"/>
<path fill="#354747" d="M9.348,32.77c-2.996,0-5.433-2.438-5.433-5.434c0-2.997,2.437-5.434,5.433-5.434s5.434,2.437,5.434,5.434
	C14.782,30.332,12.344,32.77,9.348,32.77 M9.348,23.902c-1.893,0-3.433,1.54-3.433,3.434s1.54,3.434,3.433,3.434
	c1.894,0,3.434-1.54,3.434-3.434S11.242,23.902,9.348,23.902"/>
<path fill="#354747" d="M10.832,27.336c0,0.82-0.664,1.484-1.484,1.484c-0.819,0-1.485-0.664-1.485-1.484s0.666-1.484,1.485-1.484
	C10.168,25.852,10.832,26.516,10.832,27.336"/>
<path fill="#354747" d="M37.379,32.77c-2.996,0-5.433-2.438-5.433-5.434c0-2.997,2.437-5.434,5.433-5.434s5.434,2.437,5.434,5.434
	C42.812,30.332,40.375,32.77,37.379,32.77 M37.379,23.902c-1.893,0-3.433,1.54-3.433,3.434s1.54,3.434,3.433,3.434
	s3.434-1.54,3.434-3.434S39.271,23.902,37.379,23.902"/>
<path fill="#354747" d="M38.863,27.336c0,0.82-0.664,1.484-1.484,1.484c-0.819,0-1.484-0.664-1.484-1.484s0.665-1.484,1.484-1.484
	C38.199,25.852,38.863,26.516,38.863,27.336"/>
<path fill="#354747" d="M27.154,11.23l-1.201,0.141c-0.084,0.01-0.161,0.037-0.229,0.074H13.64
	c-0.067-0.037-0.144-0.063-0.227-0.074l-1.201-0.141c-0.288-0.033-0.533,0.119-0.565,0.338c-0.014,0.092,0.01,0.185,0.073,0.263
	c0.082,0.11,0.221,0.182,0.379,0.2l1.201,0.142c0.01,0.001,0.022,0.001,0.033,0.002v3.028h0.009c0.061,0.51,0.608,2.715,5.335,2.715
	h2.137c4.727,0,5.273-2.205,5.336-2.715h0.008v-3.041l1.108-0.131c0.157-0.018,0.297-0.09,0.379-0.2
	c0.061-0.078,0.088-0.171,0.072-0.263C27.688,11.35,27.438,11.2,27.154,11.23z"/>
<path fill="#354747" d="M20.815,7.812h-0.346V7.563l0.447-0.152c0.319-0.042,0.528-0.121,0.366-0.271c0,0-0.531-0.157-1.565-0.11
	c-1.033-0.047-1.564,0.11-1.564,0.11c-0.164,0.151,0.052,0.231,0.375,0.272l0.454,0.154v0.246h-0.304
	c-5.343,0-5.343,2.818-5.343,2.818h12.825C26.159,10.63,26.159,7.812,20.815,7.812z"/>
<rect y="0" fill="none" width="48.703" height="32.77"/>
</svg>
