<?xml version="1.0" encoding="utf-8"?>
<!-- Generator: Adobe Illustrator 16.0.3, SVG Export Plug-In . SVG Version: 6.00 Build 0)  -->
<!DOCTYPE svg PUBLIC "-//W3C//DTD SVG 1.1//EN" "http://www.w3.org/Graphics/SVG/1.1/DTD/svg11.dtd">
<svg version="1.1" id="Layer_1" xmlns="http://www.w3.org/2000/svg" xmlns:xlink="http://www.w3.org/1999/xlink" x="0px" y="0px"
	 width="26.25px" height="26.25px" viewBox="0 0 26.25 26.25" enable-background="new 0 0 26.25 26.25" xml:space="preserve">
<path fill="#354747" d="M13.125,26.25C5.887,26.25,0,20.362,0,13.125C0,5.888,5.887,0,13.125,0C20.361,0,26.25,5.888,26.25,13.125
	C26.25,20.362,20.361,26.25,13.125,26.25 M13.125,1.75C6.852,1.75,1.75,6.852,1.75,13.125c0,6.272,5.102,11.375,11.375,11.375
	c6.271,0,11.375-5.103,11.375-11.375C24.5,6.852,19.396,1.75,13.125,1.75"/>
<path d="M6.794,6.319c0,0.437-0.316,0.793-0.703,0.793c-0.389,0-0.705-0.356-0.705-0.793c0-0.437,0.316-0.791,0.705-0.791
	C6.479,5.528,6.794,5.882,6.794,6.319"/>
<ellipse fill="none" stroke="#354747" stroke-width="1.5" stroke-miterlimit="10" cx="6.091" cy="6.319" rx="0.704" ry="0.793"/>
<path d="M22.926,11.245c-0.287-0.33-0.283-0.805,0.012-1.059c0.295-0.255,0.765-0.195,1.05,0.137
	c0.288,0.33,0.282,0.804-0.011,1.059C23.681,11.637,23.213,11.575,22.926,11.245"/>
<path fill="none" stroke="#354747" stroke-width="1.5" stroke-miterlimit="10" d="M22.926,11.245
	c-0.287-0.33-0.283-0.805,0.012-1.059c0.295-0.255,0.765-0.195,1.05,0.137c0.288,0.33,0.282,0.804-0.011,1.059
	C23.681,11.637,23.213,11.575,22.926,11.245z"/>
<path d="M20.092,15.411c-0.287-0.332-0.281-0.805,0.014-1.061c0.292-0.253,0.763-0.193,1.05,0.137
	c0.286,0.331,0.282,0.805-0.013,1.061C20.85,15.802,20.379,15.741,20.092,15.411"/>
<ellipse transform="matrix(-0.7549 0.6558 -0.6558 -0.7549 45.8282 12.2592)" fill="none" stroke="#354747" stroke-width="1.5" stroke-miterlimit="10" cx="20.624" cy="14.692" rx="0.704" ry="0.792"/>
<path d="M15.917,11.463c-0.285-0.331-0.278-0.805,0.015-1.061c0.295-0.255,0.763-0.193,1.05,0.137
	c0.286,0.331,0.282,0.805-0.011,1.061C16.678,11.854,16.206,11.792,15.917,11.463"/>
<ellipse transform="matrix(-0.7551 0.6557 -0.6557 -0.7551 35.9137 8.0712)" fill="none" stroke="#354747" stroke-width="1.5" stroke-miterlimit="10" cx="16.449" cy="10.744" rx="0.705" ry="0.792"/>
<path d="M11.603,14.54c0.256,0.354,0.205,0.828-0.111,1.054c-0.317,0.226-0.78,0.12-1.034-0.236
	c-0.253-0.355-0.203-0.827,0.112-1.052C10.887,14.079,11.348,14.185,11.603,14.54"/>
<ellipse transform="matrix(0.8139 -0.581 0.581 0.8139 -6.4834 9.1427)" fill="none" stroke="#354747" stroke-width="1.5" stroke-miterlimit="10" cx="11.03" cy="14.692" rx="0.703" ry="0.793"/>
<path d="M11.16,8.856c0.256,0.355,0.205,0.828-0.111,1.053c-0.317,0.226-0.78,0.121-1.034-0.235
	c-0.253-0.356-0.205-0.828,0.114-1.053C10.443,8.395,10.908,8.5,11.16,8.856"/>
<ellipse transform="matrix(0.8136 -0.5814 0.5814 0.8136 -3.4132 7.8827)" fill="none" stroke="#354747" stroke-width="1.5" stroke-miterlimit="10" cx="10.588" cy="9.265" rx="0.703" ry="0.792"/>
<path d="M15.384,16.021c0.255,0.355,0.204,0.828-0.112,1.055c-0.316,0.225-0.78,0.12-1.033-0.236
	c-0.255-0.354-0.205-0.828,0.112-1.053C14.667,15.56,15.131,15.666,15.384,16.021"/>
<ellipse transform="matrix(0.8137 -0.5813 0.5813 0.8137 -6.6418 11.6229)" fill="none" stroke="#354747" stroke-width="1.5" stroke-miterlimit="10" cx="14.811" cy="16.173" rx="0.704" ry="0.793"/>
<path d="M14.468,23.344c0.359,0.248,0.473,0.709,0.252,1.029c-0.223,0.318-0.692,0.377-1.053,0.127
	c-0.359-0.248-0.471-0.709-0.25-1.029C13.639,23.151,14.109,23.094,14.468,23.344"/>
<ellipse transform="matrix(0.5694 -0.8221 0.8221 0.5694 -13.3968 21.7559)" fill="none" stroke="#354747" stroke-width="1.5" stroke-miterlimit="10" cx="14.067" cy="23.665" rx="0.703" ry="0.793"/>
<path d="M17.615,4.949c0.357,0.249,0.472,0.709,0.25,1.029c-0.221,0.321-0.69,0.377-1.053,0.129c-0.359-0.249-0.47-0.711-0.25-1.029
	C16.785,4.758,17.255,4.701,17.615,4.949"/>
<ellipse transform="matrix(0.5698 -0.8218 0.8218 0.5698 2.8625 16.5242)" fill="none" stroke="#354747" stroke-width="1.5" stroke-miterlimit="10" cx="17.214" cy="5.528" rx="0.704" ry="0.792"/>
<path d="M18.378,18.51c0.36,0.25,0.475,0.711,0.25,1.03c-0.222,0.32-0.689,0.377-1.05,0.128c-0.358-0.249-0.472-0.709-0.251-1.029
	C17.55,18.319,18.021,18.262,18.378,18.51"/>
<ellipse transform="matrix(0.5682 -0.8229 0.8229 0.5682 -7.734 22.9245)" fill="none" stroke="#354747" stroke-width="1.5" stroke-miterlimit="10" cx="17.978" cy="18.832" rx="0.704" ry="0.791"/>
<path d="M15.385,3.463c0.254,0.356,0.202,0.828-0.114,1.054c-0.315,0.226-0.778,0.121-1.031-0.235
	c-0.257-0.357-0.204-0.828,0.11-1.054C14.668,3.003,15.129,3.108,15.385,3.463"/>
<path fill="none" stroke="#354747" stroke-width="1.5" stroke-miterlimit="10" d="M15.385,3.463
	c0.254,0.356,0.202,0.828-0.114,1.054c-0.315,0.226-0.778,0.121-1.031-0.235c-0.257-0.357-0.204-0.828,0.11-1.054
	C14.668,3.003,15.129,3.108,15.385,3.463z"/>
<path d="M11.009,19.183c0.097,0.427-0.135,0.842-0.512,0.926c-0.38,0.085-0.765-0.193-0.86-0.619
	c-0.096-0.428,0.136-0.842,0.515-0.927C10.529,18.479,10.916,18.756,11.009,19.183"/>
<ellipse transform="matrix(0.9759 -0.2181 0.2181 0.9759 -3.9128 2.7108)" fill="none" stroke="#354747" stroke-width="1.5" stroke-miterlimit="10" cx="10.323" cy="19.079" rx="0.703" ry="0.792"/>
<path d="M5.929,17.946C6.183,18.303,6.132,18.774,5.816,19c-0.317,0.226-0.778,0.121-1.033-0.235
	c-0.254-0.354-0.204-0.828,0.113-1.054C5.212,17.485,5.675,17.592,5.929,17.946"/>
<ellipse transform="matrix(0.8138 -0.5811 0.5811 0.8138 -9.5206 6.4823)" fill="none" stroke="#354747" stroke-width="1.5" stroke-miterlimit="10" cx="5.356" cy="18.099" rx="0.704" ry="0.792"/>
<path d="M6.663,12.677c0.255,0.356,0.204,0.828-0.112,1.055c-0.317,0.225-0.78,0.12-1.034-0.237
	c-0.254-0.355-0.203-0.827,0.113-1.052C5.946,12.216,6.408,12.322,6.663,12.677"/>
<ellipse transform="matrix(0.814 -0.5809 0.5809 0.814 -6.3197 5.9245)" fill="none" stroke="#354747" stroke-width="1.5" stroke-miterlimit="10" cx="6.09" cy="12.829" rx="0.704" ry="0.794"/>
<rect fill="none" width="26.25" height="26.25"/>
</svg>
