<?xml version="1.0" encoding="utf-8"?>
<!-- Generator: Adobe Illustrator 16.0.3, SVG Export Plug-In . SVG Version: 6.00 Build 0)  -->
<!DOCTYPE svg PUBLIC "-//W3C//DTD SVG 1.1//EN" "http://www.w3.org/Graphics/SVG/1.1/DTD/svg11.dtd">
<svg version="1.1" id="Layer_1" xmlns="http://www.w3.org/2000/svg" xmlns:xlink="http://www.w3.org/1999/xlink" x="0px" y="0px"
	 width="44.888px" height="34.494px" viewBox="0 0 44.888 34.494" enable-background="new 0 0 44.888 34.494" xml:space="preserve">
<path fill="#354747" d="M25.462,34.494h-5.699c-2.279,0-13.336-0.361-15.063-7.238h-0.17l-0.021-1v-7.184l-2.41-0.282
	c-0.69-0.08-1.308-0.416-1.692-0.922c-0.326-0.424-0.464-0.944-0.384-1.459c0.164-1.111,1.278-1.895,2.613-1.742l3.202,0.375
	c0.257,0.031,0.498,0.095,0.724,0.191h31.764c0.227-0.096,0.466-0.16,0.719-0.19l3.21-0.376c1.341-0.158,2.447,0.632,2.612,1.747
	c0.078,0.515-0.062,1.034-0.392,1.461c-0.382,0.5-0.998,0.836-1.688,0.915l-2.067,0.244v8.222h-0.216
	C39.842,29.529,37.065,34.494,25.462,34.494 M6.508,26.046l0.013,0.085c0.133,1.062,1.399,6.363,13.241,6.363h5.699
	c11.856,0,13.111-5.299,13.242-6.361l0.016-0.12v-8.758l3.836-0.451c0.141-0.017,0.248-0.067,0.305-0.117
	c-0.012-0.008-0.138-0.038-0.284-0.038l-3.294,0.379c-0.084,0.011-0.166,0.037-0.232,0.074l-0.229,0.131H6.071l-0.23-0.13
	c-0.067-0.038-0.15-0.064-0.241-0.075l-3.199-0.375C2.083,16.657,2,16.727,1.986,16.747c0.055-0.034,0.176,0.038,0.342,0.057
	l4.09,0.478l0.09,0.896V26.046z"/>
<path fill="#354747" d="M40.72,13.361H4.509v-1c0-0.347,0.17-8.449,15.063-8.518V3.762l-0.545-0.27
	c-0.633-0.132-1.43-0.402-1.72-1.141c-0.109-0.275-0.22-0.832,0.252-1.469l0.153-0.208l0.237-0.107
	c0.148-0.065,1.654-0.72,4.585-0.534c2.936-0.183,4.44,0.469,4.586,0.534l0.238,0.107l0.154,0.209
	c0.469,0.635,0.36,1.191,0.254,1.465c-0.287,0.733-1.071,1.003-1.69,1.137l-0.538,0.267v0.091c15.01,0.028,15.182,8.17,15.182,8.518
	V13.361z M6.716,11.361h31.797c-0.623-1.838-3.111-5.518-13.051-5.518h-1.924V2.509l0.952-0.471
	c-0.521-0.044-1.152-0.057-1.888-0.005l-0.068,0.004l-0.066-0.004c-0.73-0.052-1.357-0.039-1.875,0.003l0.979,0.486v3.321h-1.809
	C9.825,5.843,7.338,9.523,6.716,11.361"/>
<rect fill="none" width="44.888" height="34.494"/>
</svg>
