<?xml version="1.0" encoding="utf-8"?>
<!-- Generator: Adobe Illustrator 16.0.3, SVG Export Plug-In . SVG Version: 6.00 Build 0)  -->
<!DOCTYPE svg PUBLIC "-//W3C//DTD SVG 1.1//EN" "http://www.w3.org/Graphics/SVG/1.1/DTD/svg11.dtd">
<svg version="1.1" id="Layer_1" xmlns="http://www.w3.org/2000/svg" xmlns:xlink="http://www.w3.org/1999/xlink" x="0px" y="0px"
	 width="38.326px" height="38.326px" viewBox="0 0 38.326 38.326" enable-background="new 0 0 38.326 38.326" xml:space="preserve">
<path fill-rule="evenodd" clip-rule="evenodd" fill="#354747" d="M5.904,27.807c0-1.588,0.029-3.178-0.014-4.766
	c-0.021-0.869,0.171-1.629,0.75-2.275c0.403-0.449,0.542-0.963,0.531-1.561c-0.025-1.504-0.019-3.006-0.001-4.51
	c0.004-0.486-0.141-0.837-0.518-1.181C4.099,11.17,3.813,6.19,6.051,3.535c1.871-2.215,4.812-2.134,6.562,0.182
	c2.104,2.783,1.736,7.432-0.803,9.838c-0.363,0.344-0.521,0.689-0.513,1.183c0.023,1.475,0.029,2.95-0.002,4.424
	c-0.012,0.605,0.138,1.109,0.543,1.555c0.624,0.688,0.836,1.498,0.828,2.426c-0.031,3.262,0.01,6.523-0.024,9.785
	c-0.015,1.449-0.679,2.572-2.035,3.178c-1.254,0.562-2.449,0.359-3.506-0.498c-0.787-0.639-1.196-1.494-1.196-2.525
	C5.908,31.324,5.905,29.564,5.904,27.807L5.904,27.807z M7.369,27.922h0.006c0,1.699-0.026,3.402,0.01,5.102
	c0.022,1.178,0.83,1.902,1.971,1.863c1.111-0.037,1.82-0.83,1.827-2.129c0.016-3.176-0.007-6.35,0.016-9.525
	c0.006-0.664-0.159-1.215-0.589-1.713c-0.452-0.525-0.782-1.109-0.779-1.836c0.007-1.93,0.007-3.858-0.003-5.785
	c-0.002-0.461,0.113-0.852,0.539-1.075c2.418-1.259,2.639-6.25,1.178-8.068c-0.16-0.199-0.319-0.402-0.502-0.578
	C9.961,3.149,8.437,3.174,7.39,4.233c-2.072,2.097-1.746,6.734,0.629,8.484c0.493,0.363,0.696,0.767,0.692,1.353
	c-0.014,1.702-0.023,3.403,0.008,5.104c0.013,0.895-0.202,1.687-0.807,2.348c-0.43,0.471-0.563,1.008-0.553,1.637
	C7.387,24.744,7.369,26.334,7.369,27.922"/>
<path fill-rule="evenodd" clip-rule="evenodd" fill="#354747" d="M17.135,27.848c0-1.674,0.023-3.346-0.01-5.02
	c-0.015-0.783,0.184-1.457,0.713-2.025c0.435-0.465,0.572-1.004,0.563-1.633c-0.029-1.56-0.026-3.121-0.002-4.679
	c0.009-0.565-0.126-0.938-0.674-1.227c-1.324-0.701-1.926-1.875-1.932-3.353c-0.01-2.27-0.002-4.54-0.002-6.809
	c-0.002-0.533,0.012-1.111,0.719-1.121c0.703-0.01,0.75,0.556,0.75,1.097c0,2.211-0.005,4.424,0.003,6.637
	c0.005,1.362,0.45,2.053,1.726,2.512c0.668,0.238,0.949,0.639,0.945,1.322c-0.01,1.986-0.004,3.971-0.004,5.957
	c0,0.807-0.315,1.494-0.844,2.08c-0.367,0.406-0.492,0.861-0.492,1.4c0.014,3.262,0,6.523,0.013,9.785
	c0.003,1.344,0.723,2.133,1.893,2.117c1.162-0.014,1.904-0.816,1.912-2.143c0.016-3.26-0.003-6.523,0.014-9.785
	c0.002-0.557-0.218-0.982-0.559-1.379c-0.582-0.674-0.835-1.439-0.816-2.343c0.043-1.844,0.029-3.688,0.01-5.532
	c-0.01-0.746,0.258-1.23,0.987-1.49c1.116-0.396,1.646-1.203,1.63-2.41c-0.027-2.07-0.008-4.141-0.004-6.213
	c0-0.254,0-0.51,0.027-0.764c0.053-0.451,0.203-0.875,0.744-0.873c0.526,0.004,0.748,0.403,0.748,0.866
	c0.005,2.521,0.128,5.046-0.059,7.568c-0.098,1.312-0.777,2.305-1.943,2.906c-0.506,0.26-0.676,0.588-0.666,1.137
	c0.029,1.56,0.03,3.121,0,4.68c-0.012,0.634,0.136,1.167,0.561,1.634c0.605,0.664,0.814,1.449,0.807,2.348
	c-0.025,3.262,0.005,6.523-0.018,9.785c-0.011,1.459-0.674,2.574-2.003,3.205c-1.243,0.588-2.442,0.391-3.508-0.451
	c-0.797-0.631-1.223-1.479-1.225-2.512c-0.004-1.758-0.001-3.516-0.001-5.275H17.135z"/>
<path fill-rule="evenodd" clip-rule="evenodd" fill="#354747" d="M35.109,18.879c0,4.621,0.006,9.24-0.003,13.86
	c-0.003,1.794-1.021,3.173-2.584,3.563c-2.268,0.568-4.268-1.227-4.222-3.699c0.062-3.371,0.045-6.744,0.072-10.114
	c0.004-0.437-0.122-0.748-0.49-1.007c-0.632-0.438-0.865-1.084-0.865-1.842c0.008-3.315-0.033-6.633,0.021-9.947
	c0.032-1.887,0.426-3.715,1.433-5.358c0.692-1.127,1.614-1.982,2.936-2.293c2.144-0.504,3.69,0.737,3.699,2.977
	c0.011,3.543,0.003,7.086,0.003,10.629V18.879z M33.646,18.887c0-4.592,0.006-9.184-0.004-13.773
	c-0.004-1.485-0.975-2.084-2.34-1.479c-0.478,0.211-0.857,0.547-1.191,0.939c-0.701,0.821-1.105,1.793-1.281,2.834
	c-0.689,4.083-0.195,8.2-0.322,12.301c-0.01,0.352,0.186,0.643,0.541,0.646c0.74,0.009,0.785,0.463,0.781,1.023
	c-0.012,1.446-0.004,2.891,0,4.336c0.002,2.467-0.012,4.932,0.02,7.399c0.012,0.972,0.706,1.673,1.622,1.763
	c1.013,0.098,1.782-0.422,2.062-1.375c0.122-0.418,0.113-0.842,0.113-1.266V18.887z"/>
<path fill-rule="evenodd" clip-rule="evenodd" fill="#354747" d="M19.928,6.225c0,1.104,0.011,2.207-0.006,3.311
	c-0.009,0.496-0.088,1.037-0.728,1.054c-0.703,0.02-0.79-0.55-0.79-1.076c-0.017-2.18-0.014-4.357-0.004-6.537
	c0.004-0.514,0.142-1.023,0.773-1.014c0.629,0.008,0.744,0.526,0.75,1.036C19.938,4.073,19.929,5.148,19.928,6.225"/>
<path fill-rule="evenodd" clip-rule="evenodd" fill="#354747" d="M22.538,6.352c0,1.102,0.003,2.203,0,3.305
	c-0.001,0.496-0.12,0.941-0.722,0.933c-0.586-0.006-0.734-0.451-0.736-0.943c-0.006-2.26-0.006-4.52,0-6.777
	c0.002-0.508,0.195-0.922,0.779-0.895c0.535,0.027,0.679,0.432,0.679,0.902V6.352z"/>
<rect fill="none" width="38.326" height="38.326"/>
</svg>
