<?xml version="1.0" encoding="utf-8"?>
<!-- Generator: Adobe Illustrator 16.0.3, SVG Export Plug-In . SVG Version: 6.00 Build 0)  -->
<!DOCTYPE svg PUBLIC "-//W3C//DTD SVG 1.1//EN" "http://www.w3.org/Graphics/SVG/1.1/DTD/svg11.dtd">
<svg version="1.1" id="Layer_1" xmlns="http://www.w3.org/2000/svg" xmlns:xlink="http://www.w3.org/1999/xlink" x="0px" y="0px"
	 width="35px" height="52.76px" viewBox="0 0 35 52.76" enable-background="new 0 0 35 52.76" xml:space="preserve">
<path fill="#354747" d="M17.04,20.751l-8.201-3.995c-2.284-0.878-2.227-5.216-2.152-6.534L6.686,7.749l1.346,0.498
	c0.714,0.264,7.013,2.648,8.519,5.054c1.564,2.505,0.799,6.063,0.766,6.213L17.04,20.751z M8.67,10.649
	c-0.055,2.071,0.357,4.054,0.892,4.242l0.108,0.045l5.85,2.849c0.055-1.003-0.021-2.391-0.666-3.424
	C14.134,13.209,11.083,11.657,8.67,10.649"/>
<path fill="#354747" d="M17.959,20.751l-0.276-1.237c-0.033-0.15-0.799-3.708,0.767-6.213c1.505-2.406,7.805-4.79,8.519-5.054
	l1.346-0.498v2.528c0.072,1.264,0.13,5.601-2.153,6.479L17.959,20.751z M26.328,10.649c-2.411,1.008-5.463,2.56-6.185,3.712
	c-0.619,0.991-0.72,2.369-0.668,3.426l5.959-2.896C25.969,14.705,26.389,12.657,26.328,10.649"/>
<path fill="#354747" d="M17.04,29.456L8.839,25.46c-2.284-0.877-2.227-5.215-2.152-6.533l-0.002-2.475l1.346,0.499
	c0.714,0.264,7.013,2.649,8.519,5.054c1.564,2.506,0.799,6.064,0.766,6.214L17.04,29.456z M8.67,19.353
	c-0.055,2.071,0.355,4.055,0.892,4.242l0.109,0.045l5.849,2.85c0.055-1.003-0.021-2.391-0.666-3.426
	C14.133,21.912,11.083,20.361,8.67,19.353"/>
<path fill="#354747" d="M17.959,29.457l-0.276-1.237c-0.033-0.151-0.799-3.708,0.765-6.214c1.507-2.406,7.807-4.791,8.521-5.055
	l1.346-0.498v2.53c0.072,1.263,0.13,5.6-2.153,6.477L17.959,29.457z M26.328,19.354c-2.411,1.008-5.463,2.56-6.185,3.712
	c-0.619,0.991-0.72,2.369-0.668,3.426l5.959-2.896C25.969,23.409,26.389,21.361,26.328,19.354"/>
<path fill="#354747" d="M17.04,38.317l-8.201-3.996c-2.284-0.878-2.227-5.216-2.152-6.534l-0.002-2.473l1.346,0.498
	c0.714,0.264,7.013,2.647,8.519,5.054c1.564,2.505,0.799,6.063,0.766,6.214L17.04,38.317z M8.67,28.215
	c-0.055,2.07,0.357,4.054,0.892,4.241l0.109,0.045l5.849,2.851c0.055-1.003-0.021-2.393-0.666-3.425
	C14.134,30.774,11.083,29.223,8.67,28.215"/>
<path fill="#354747" d="M17.959,38.317l-0.276-1.237c-0.033-0.149-0.799-3.709,0.767-6.214c1.505-2.406,7.805-4.79,8.519-5.054
	l1.346-0.498v2.528c0.072,1.264,0.13,5.601-2.153,6.479L17.959,38.317z M26.328,28.215c-2.411,1.008-5.463,2.56-6.185,3.712
	c-0.645,1.033-0.72,2.422-0.666,3.425l5.957-2.896C25.969,32.271,26.389,30.223,26.328,28.215"/>
<rect x="13.935" y="1.556" fill="#354747" width="1.844" height="9.184"/>
<rect x="18.915" y="1.556" fill="#354747" width="1.844" height="9.184"/>
<rect x="16.271" y="0.001" fill="#354747" width="1.844" height="12.607"/>
<rect x="16.193" y="38.631" fill="#354747" width="2" height="14.129"/>
<rect x="6.662" fill="none" width="21.676" height="52.76"/>
</svg>
