<?xml version="1.0" encoding="utf-8"?>
<!-- Generator: Adobe Illustrator 16.0.3, SVG Export Plug-In . SVG Version: 6.00 Build 0)  -->
<!DOCTYPE svg PUBLIC "-//W3C//DTD SVG 1.1//EN" "http://www.w3.org/Graphics/SVG/1.1/DTD/svg11.dtd">
<svg version="1.1" id="Layer_1" xmlns="http://www.w3.org/2000/svg" xmlns:xlink="http://www.w3.org/1999/xlink" x="0px" y="0px"
	 width="26.25px" height="26.25px" viewBox="0 0 26.25 26.25" enable-background="new 0 0 26.25 26.25" xml:space="preserve">
<path fill="#354747" d="M13.125,26.25C5.887,26.25,0,20.362,0,13.125C0,5.888,5.887,0,13.125,0C20.361,0,26.25,5.888,26.25,13.125
	C26.25,20.362,20.361,26.25,13.125,26.25 M13.125,1.75C6.852,1.75,1.75,6.852,1.75,13.125c0,6.272,5.102,11.375,11.375,11.375
	c6.271,0,11.375-5.103,11.375-11.375C24.5,6.852,19.396,1.75,13.125,1.75"/>
<polygon fill="#354747" points="14.053,12.561 14.053,3.873 11.799,3.873 11.799,13.873 11.917,13.873 11.838,14.114 20.574,16.939 
	21.238,14.885 "/>
<rect fill="none" width="26.25" height="26.25"/>
</svg>
