<?xml version="1.0" encoding="utf-8"?>
<!-- Generator: Adobe Illustrator 16.0.3, SVG Export Plug-In . SVG Version: 6.00 Build 0)  -->
<!DOCTYPE svg PUBLIC "-//W3C//DTD SVG 1.1//EN" "http://www.w3.org/Graphics/SVG/1.1/DTD/svg11.dtd">
<svg version="1.1" id="Layer_1" xmlns="http://www.w3.org/2000/svg" xmlns:xlink="http://www.w3.org/1999/xlink" x="0px" y="0px"
	 width="51.2px" height="39px" viewBox="0 0 51.2 39" enable-background="new 0 0 51.2 39" xml:space="preserve">
<path fill="#354747" d="M51.199,11v0.6c-0.312,0.363-0.605,0.744-0.941,1.084c-1.605,1.62-3.218,3.233-4.839,4.836
	c-0.244,0.241-0.346,0.481-0.345,0.826c0.014,2.979,0,5.959,0.015,8.938c0.003,0.513-0.147,0.936-0.462,1.327
	c-2.562,3.193-5.111,6.396-7.683,9.58c-0.256,0.317-0.627,0.541-0.945,0.809H5c-0.715-0.252-0.914-0.773-0.912-1.503
	c0.018-6.597,0.01-13.192,0.01-19.788v-0.577c-0.095,0.016-0.129,0.015-0.157,0.028c-0.73,0.361-1.459,0.725-2.189,1.085
	C0.911,18.661,0.444,18.514,0,17.7c0-0.166,0-0.333,0-0.5c0.124-0.25,0.247-0.5,0.371-0.75c1.224-2.452,2.44-4.907,3.681-7.351
	c0.159-0.313,0.4-0.619,0.677-0.833c2.513-1.944,5.035-3.875,7.568-5.792C13.415,1.627,14.564,0.824,15.7,0h28.6
	c0.301,0.336,0.663,0.634,0.893,1.012C47.209,4.333,49.2,7.668,51.199,11 M6.208,36.872h28.559V10.315H6.208V36.872z M8.253,8.171
	c0.179,0.02,0.227,0.03,0.276,0.03c8.845,0.001,17.689,0.003,26.534-0.009c0.201-0.001,0.45-0.119,0.596-0.263
	c1.85-1.826,3.684-3.666,5.521-5.504c0.083-0.084,0.149-0.185,0.252-0.313c-0.134-0.007-0.2-0.014-0.267-0.014
	C32.954,2.098,24.743,2.097,16.53,2.107c-0.21,0-0.455,0.093-0.625,0.221c-1.372,1.028-2.73,2.074-4.092,3.116
	C10.654,6.331,9.497,7.219,8.253,8.171 M42.17,17.793c0.092-0.061,0.138-0.082,0.171-0.115c2.099-2.096,4.192-4.195,6.299-6.284
	c0.198-0.196,0.19-0.339,0.057-0.554c-0.403-0.65-0.792-1.309-1.186-1.965c-1.216-2.023-2.431-4.047-3.622-6.031
	c-2.227,2.216-4.441,4.422-6.69,6.662C38.831,12.229,40.489,14.994,42.17,17.793 M36.935,13.141v21.711
	c0.078-0.069,0.12-0.096,0.149-0.133c1.913-2.394,3.829-4.785,5.733-7.188c0.111-0.14,0.176-0.356,0.177-0.538
	c0.013-2.232,0.009-4.466,0.008-6.698c0-0.075-0.014-0.149-0.023-0.247c-1.005,0.722-1.503,0.617-2.121-0.414
	c-1.199-1.997-2.396-3.995-3.596-5.992C37.172,13.493,37.071,13.35,36.935,13.141 M4.044,13.712
	c-0.249,0.516-0.439,0.911-0.667,1.384C4.158,14.753,4.158,14.753,4.044,13.712"/>
<path fill="#354747" d="M14.565,22.865v3.758h0.009c0.061,0.51,0.608,2.715,5.335,2.715h2.137c4.727,0,5.272-2.205,5.336-2.715
	h0.008v-3.758H14.565z"/>
<path fill="#354747" d="M28.848,23.004c0.024,0.164-0.137,0.318-0.36,0.346l-1.201,0.141c-0.226,0.025-0.426-0.086-0.452-0.25
	c-0.023-0.164,0.138-0.318,0.362-0.346l1.201-0.141C28.619,22.729,28.823,22.84,28.848,23.004"/>
<path fill="#354747" d="M27.222,23.598c-0.254,0-0.459-0.145-0.489-0.342c-0.013-0.092,0.012-0.186,0.071-0.264
	c0.082-0.109,0.222-0.182,0.381-0.201l1.201-0.141c0.282-0.031,0.532,0.119,0.563,0.338c0.016,0.092-0.011,0.186-0.072,0.264
	c-0.082,0.109-0.222,0.182-0.379,0.199l-1.201,0.143C27.272,23.596,27.245,23.598,27.222,23.598 M28.461,22.854
	c-0.016,0-0.034,0.002-0.053,0.004l-1.202,0.141c-0.1,0.012-0.188,0.057-0.236,0.119c-0.021,0.025-0.039,0.062-0.031,0.107
	c0.013,0.104,0.168,0.182,0.335,0.162l1.202-0.141c0.1-0.012,0.188-0.057,0.237-0.119c0.019-0.025,0.039-0.062,0.031-0.107
	C28.731,22.926,28.606,22.854,28.461,22.854"/>
<path fill="#354747" d="M12.981,23.004c-0.024,0.164,0.137,0.318,0.361,0.346l1.201,0.141c0.225,0.025,0.426-0.086,0.452-0.25
	c0.023-0.164-0.138-0.318-0.362-0.346l-1.201-0.141C13.207,22.729,13.005,22.84,12.981,23.004"/>
<path fill="#354747" d="M14.608,23.598L14.608,23.598c-0.026,0-0.052-0.002-0.077-0.004l-1.201-0.143
	c-0.158-0.018-0.297-0.09-0.379-0.199c-0.063-0.078-0.087-0.172-0.073-0.264c0.032-0.219,0.277-0.371,0.565-0.338l1.201,0.141
	c0.157,0.02,0.297,0.092,0.378,0.201c0.062,0.078,0.087,0.172,0.073,0.264C15.066,23.453,14.862,23.598,14.608,23.598
	 M13.366,22.854c-0.143,0-0.268,0.072-0.281,0.166c-0.008,0.045,0.013,0.084,0.031,0.107c0.049,0.062,0.137,0.107,0.238,0.119
	l1.199,0.141c0.168,0.02,0.323-0.059,0.337-0.162c0.009-0.045-0.012-0.082-0.03-0.107c-0.049-0.062-0.137-0.107-0.24-0.119
	l-1.201-0.141C13.4,22.855,13.384,22.854,13.366,22.854"/>
<path fill="#354747" d="M22.046,19.232H21.7v-0.249l0.446-0.152c0.319-0.042,0.529-0.121,0.367-0.271c0,0-0.531-0.157-1.565-0.11
	c-1.033-0.046-1.564,0.11-1.564,0.11c-0.164,0.151,0.052,0.231,0.375,0.272l0.453,0.154v0.246h-0.304
	c-5.343,0-5.343,2.818-5.343,2.818h12.825C27.391,22.051,27.391,19.232,22.046,19.232z"/>
<rect fill="none" width="51.2" height="39"/>
</svg>
