<?xml version="1.0" encoding="utf-8"?>
<!-- Generator: Adobe Illustrator 16.0.3, SVG Export Plug-In . SVG Version: 6.00 Build 0)  -->
<!DOCTYPE svg PUBLIC "-//W3C//DTD SVG 1.1//EN" "http://www.w3.org/Graphics/SVG/1.1/DTD/svg11.dtd">
<svg version="1.1" id="Layer_1" xmlns="http://www.w3.org/2000/svg" xmlns:xlink="http://www.w3.org/1999/xlink" x="0px" y="0px"
	 width="30px" height="38.67px" viewBox="0 0 30 38.67" enable-background="new 0 0 30 38.67" xml:space="preserve">
<path fill-rule="evenodd" clip-rule="evenodd" fill="#354747" d="M14.777,0.746c0.793-0.846,0.811-0.84,1.306,0.229
	c2.904,6.298,4.746,12.883,5.369,19.801c0.085,0.951,0.09,1.912,0.15,2.865c0.024,0.401-0.132,0.541-0.526,0.533
	c-0.827-0.016-1.654,0.006-2.479,0c-0.333-0.002-0.592,0.016-0.627,0.452c-0.037,0.473-0.411,0.551-0.809,0.575
	c-1.274,0.074-1.575,0.414-1.532,1.704c0.018,0.571,0.153,1.117,0.286,1.668c0.488,2.025,0.533,4.048-0.08,6.061
	c-0.11,0.354-0.086,0.635,0.156,0.961c0.511,0.691,0.564,1.454,0.077,2.193c-0.43,0.645-1.066,0.883-1.813,0.772
	c-0.847-0.122-1.342-0.66-1.546-1.476c-1.025-4.111-1.341-8.273-0.935-12.494c0.197-2.037,0.05-4.086,0.056-6.131
	c0.008-3.373,0.077-6.748-0.052-10.117C11.664,5.326,12.78,2.886,14.777,0.746 M15.212,2.317c-1.206,1.456-2.057,2.966-2.061,4.819
	c-0.008,5.047,0.02,10.094,0.018,15.142c0.001,0.459,0.162,0.593,0.61,0.589c1.893-0.028,3.787-0.022,5.677-0.028
	c0.825-0.006,0.815-0.004,0.768-0.827c-0.312-5.322-1.53-10.449-3.296-15.459C16.434,5.144,15.905,3.747,15.212,2.317"/>
<rect x="1.473" y="5.419" transform="matrix(0.7092 0.705 -0.705 0.7092 18.2555 -4.8541)" fill="none" width="27.079" height="28.569"/>
</svg>
